# xmcd
#
# Track frame offsets:
#	150
#	12578
#	23828
#	34846
#	43752
#	56508
#	67313
#	78102
#	88483
#	97417
#	110402
#	122465
#	131065
#	142710
#	152690
#	165145
#	178135
#	192384
#	205984
#	227695
#	240668
#	253044
#	267005
#	279388
#	291185
#	304386
#	321161
#	340839
#
# Disc length: 4781 seconds
# Revision: 1
# Processed by: cddbd v1.5.2PL0 Copyright (c) Steve Scherf et al.
# Submitted via: dBpowerAMP V12.0
#
DISCID=9912ab1c
DTITLE=Various Artist - Holy Cow - The Very Best Of Lee Dorsey
DYEAR=1966
DGENRE=Soul
TTITLE0=Lee Dorsey - Working In The Coalmine
TTITLE1=Lee Dorsey - Holy Cow
TTITLE2=Lee Dorsey - Ya Ya
TTITLE3=Lee Dorsey - Do-Re-Mi
TTITLE4=Lee Dorsey - Ride Your Pony
TTITLE5=Lee Dorsey - Confusion
TTITLE6=Lee Dorsey - Get Out Of My Life, Woman
TTITLE7=Lee Dorsey - Go-Go Girl
TTITLE8=Lee Dorsey - My Old Car
TTITLE9=Lee Dorsey and Betty Harris - Love Lots Of Lovin'
TTITLE10=Lee Dorsey - Can You Hear Me?
TTITLE11=Lee Dorsey - Great Googa Mooga
TTITLE12=Lee Dorsey - Lottie Mo
TTITLE13=Lee Dorsey - You're Breaking Me Up
TTITLE14=Lee Dorsey - Four Corners (Part 1)
TTITLE15=Lee Dorsey - A Lover Was Born
TTITLE16=Lee Dorsey - Everything I Do Gonh Be Funky (From Now On)
TTITLE17=Lee Dorsey - Give It Up
TTITLE18=Lee Dorsey - Yes We Can
TTITLE19=Lee Dorsey - Sneakin' Sally Through The Alley
TTITLE20=Lee Dorsey - Occapella
TTITLE21=Lee Dorsey - Who's Gonna Help Brother Get Further?
TTITLE22=Lee Dorsey - O Me-O, My-O
TTITLE23=Lee Dorsey - Riverboat
TTITLE24=Lee Dorsey - Freedom For The Stallion
TTITLE25=Lee Dorsey - On Your Way Down
TTITLE26=Lee Dorsey - Night People
TTITLE27=Lee Dorsey - Soul Mine
EXTD=
EXTT0=
EXTT1=
EXTT2=
EXTT3=
EXTT4=
EXTT5=
EXTT6=
EXTT7=
EXTT8=
EXTT9=
EXTT10=
EXTT11=
EXTT12=
EXTT13=
EXTT14=
EXTT15=
EXTT16=
EXTT17=
EXTT18=
EXTT19=
EXTT20=
EXTT21=
EXTT22=
EXTT23=
EXTT24=
EXTT25=
EXTT26=
EXTT27=
PLAYORDER=
